<?xml version="1.0" encoding="UTF-8"?>
<svg id="Calque_1" data-name="Calque 1" xmlns="http://www.w3.org/2000/svg" viewBox="0 0 156 156">
  <defs>
    <style>
      .cls-1 {
        fill: #fff;
      }
    </style>
  </defs>
  <path class="cls-1" d="m78,156C34.99,156,0,121.01,0,78S34.99,0,78,0s78,34.99,78,78-34.99,78-78,78Zm0-144C41.61,12,12,41.61,12,78s29.61,66,66,66,66-29.61,66-66S114.39,12,78,12Z"/>
  <polygon class="cls-1" points="107.24 57.24 98.76 48.76 78 69.51 57.24 48.76 48.76 57.24 69.51 78 48.76 98.76 57.24 107.24 78 86.49 98.76 107.24 107.24 98.76 86.49 78 107.24 57.24"/>
</svg>